HIERARCHY
ROOT Hips
{
	OFFSET 0.00000 0.00000 0.00000
	CHANNELS 6 Xposition Yposition Zposition Zrotation Yrotation Xrotation 
	JOINT LHipJoint
	{
		OFFSET 0 0 0
		CHANNELS 3 Zrotation Yrotation Xrotation
		JOINT LeftHip
		{
			OFFSET 1.37590 -1.78394 0.89329
			CHANNELS 3 Zrotation Yrotation Xrotation
			JOINT LeftKnee
			{
				OFFSET 2.47928 -6.81178 0.00000
				CHANNELS 3 Zrotation Yrotation Xrotation
				JOINT LeftAnkle
				{
					OFFSET 2.63345 -7.23535 0.00000
					CHANNELS 3 Zrotation Yrotation Xrotation
					JOINT LeftToe
					{
						OFFSET 0.23938 -0.65768 2.27012
						CHANNELS 3 Zrotation Yrotation Xrotation
						End Site
						{
							OFFSET 0.00000 -0.00000 1.18363
						}
					}
				}
			}
		}
	}
	JOINT RHipJoint
	{
		OFFSET 0 0 0
		CHANNELS 3 Zrotation Yrotation Xrotation
		JOINT RightHip
		{
			OFFSET -1.33617 -1.78394 0.89329
			CHANNELS 3 Zrotation Yrotation Xrotation
			JOINT RightKnee
			{
				OFFSET -2.56922 -7.05888 0.00000
				CHANNELS 3 Zrotation Yrotation Xrotation
				JOINT RightAnkle
				{
					OFFSET -2.56568 -7.04915 0.00000
					CHANNELS 3 Zrotation Yrotation Xrotation
					JOINT RightToe
					{
						OFFSET -0.27533 -0.75646 2.18105
						CHANNELS 3 Zrotation Yrotation Xrotation
						End Site
						{
							OFFSET -0.00000 -0.00000 1.15233
						}
					}
				}
			}
		}
	}
	JOINT lowerback
	{
		OFFSET 0 0 0
		CHANNELS 3 Zrotation Yrotation Xrotation
		JOINT Chest
		{
			OFFSET 0.06190 2.15152 -0.00935
			CHANNELS 3 Zrotation Yrotation Xrotation
			JOINT Chest2
			{
				OFFSET 0.06334 2.15332 0.00872
				CHANNELS 3 Zrotation Yrotation Xrotation
				JOINT lowerneck
				{
					OFFSET 0 0 0
					CHANNELS 3 Zrotation Yrotation Xrotation
					JOINT Neck
					{
						OFFSET -0.04202 1.66908 0.23524
						CHANNELS 3 Zrotation Yrotation Xrotation
						JOINT Head
						{
							OFFSET 0.07510 1.69357 -0.24440
							CHANNELS 3 Zrotation Yrotation Xrotation
							End Site
							{
								OFFSET 0.02556 1.71719 -0.11000
							}
						}
					}
				}
				JOINT LeftCollar
				{
					OFFSET 0 0 0
					CHANNELS 3 Zrotation Yrotation Xrotation
					JOINT LeftShoulder
					{
						OFFSET 3.67168 1.26306 -0.41342
CHANNELS 3 Zrotation Xrotation Yrotation
						JOINT LeftElbow
						{
OFFSET 0 -4.685100 -0.000000
CHANNELS 3 Zrotation Xrotation Yrotation
							JOINT LeftWrist
							{
OFFSET 0 -3.396260 -0.000000
CHANNELS 3 Zrotation Xrotation Yrotation
								JOINT lhand
								{
									OFFSET 0 0 0
CHANNELS 3 Zrotation Xrotation Yrotation
									JOINT LFingers
									{
OFFSET 0 -0.486080 -0.000000
CHANNELS 3 Zrotation Xrotation Yrotation
										End Site
										{
OFFSET 0 -0.391890 -0.000000
										}
									}
								}
								JOINT LThumb
								{
OFFSET 0 0.000000 0.000000
CHANNELS 3 Zrotation Xrotation Yrotation
									End Site
									{
OFFSET 0 -0.397870 0.397870
									}
								}
							}
						}
					}
				}
				JOINT RightCollar
				{
					OFFSET 0 0 0
					CHANNELS 3 Zrotation Yrotation Xrotation
					JOINT RightShoulder
					{
						OFFSET -3.04136 1.42992 -0.76390
CHANNELS 3 Zrotation Xrotation Yrotation
						JOINT RightElbow
						{
OFFSET 0 -5.555760 -0.000000
CHANNELS 3 Zrotation Xrotation Yrotation
							JOINT RightWrist
							{
OFFSET 0 -3.327740 -0.000000
CHANNELS 3 Zrotation Xrotation Yrotation
								JOINT rhand
								{
									OFFSET 0 0 0
CHANNELS 3 Zrotation Xrotation Yrotation
									JOINT RFingers
									{
OFFSET 0 -0.507630 -0.000000
CHANNELS 3 Zrotation Xrotation Yrotation
										End Site
										{
OFFSET 0 -0.409260 -0.000000
										}
									}
								}
								JOINT RThumb
								{
OFFSET 0 0.000000 0.000000
CHANNELS 3 Zrotation Xrotation Yrotation
									End Site
									{
OFFSET 0 -0.415510 0.415510
									}
								}
							}
						}
					}
				}
			}
		}
	}
}
MOTION
Frames: 10
Frame Time: 0.008333333333333333
28.610100 17.417700 5.843900 41.353500 -84.096900 -40.925500 0.000000 0.000000 0.000000 -28.752400 -5.488400 9.744300 0.771200 5.607500 15.649900 1.054800 -7.810500 -18.369600 0.003200 0.368100 1.011400 0.000000 0.000000 0.000000 0.807700 13.665200 -77.371300 -14.942100 -19.375300 75.062200 -0.692000 -22.499000 20.548600 -1.162700 -6.845200 19.257700 -6.389300 -5.421400 5.234100 2.266700 -7.600400 -1.656900 6.477400 -3.616500 -3.514000 -3.551300 -1.040500 -22.825900 4.536800 -1.287100 17.161000 1.967900 -0.322200 9.200400 0.000000 -0.000000 0.000000 8.433700 -27.660800 -51.794800 52.960200 -54.121800 28.555800 12.124800 0.746200 -15.479200 0.000000 0.000000 0.000000 -7.125000 0.000000 0.000000 -14.441000 45.288300 0.105000 0.000000 -0.000000 0.000000 -9.711500 30.407600 -0.721700 -12.638200 -20.754800 -2.323500 -4.099400 10.818400 12.633800 0.000000 0.000000 0.000000 7.125000 0.000000 -0.000000 20.548700 41.700700 1.755100
28.525043 17.403431 5.837414 40.944153 -84.020306 -40.280872 0.000000 0.000000 0.000000 -28.651160 -5.349295 9.822500 0.759649 5.566053 15.530499 1.062768 -8.007730 -18.450086 0.001841 0.266489 0.732201 0.000000 0.000000 0.000000 1.058114 13.473096 -76.368223 -14.684088 -19.307415 74.282359 -0.712693 -22.692401 20.780916 -1.255293 -7.099567 20.012031 -6.373734 -5.447837 4.926549 2.258114 -7.615286 -1.633860 6.421746 -3.634537 -3.317758 -3.558836 -1.059525 -22.808419 4.588007 -1.318417 17.047529 1.981180 -0.331651 9.159817 0.000000 0.000000 0.000000 8.218804 -27.218777 -51.890419 52.724549 -54.036681 28.365055 12.270391 0.964185 -15.570681 0.000000 0.000000 0.000000 -7.125000 0.000000 0.000000 -14.338215 45.395903 0.142927 0.000000 0.000000 0.000000 -9.442926 30.019625 0.226278 -13.005112 -21.293246 -2.456119 -4.006993 9.907669 12.215187 0.000000 0.000000 0.000000 7.125000 0.000000 0.000000 20.491934 41.299568 1.962708
28.439398 17.388974 5.830975 40.528379 -83.944935 -39.628783 0.000000 0.000000 0.000000 -28.547024 -5.208048 9.898323 0.748004 5.524134 15.409804 1.068830 -8.199994 -18.514942 0.000765 0.160147 0.439985 0.000000 0.000000 0.000000 1.314789 13.281228 -75.339959 -14.422569 -19.236258 73.490112 -0.733033 -22.874149 21.004004 -1.337481 -7.321662 20.672251 -6.367160 -5.464953 4.710260 2.269113 -7.625324 -1.678024 6.407332 -3.642475 -3.240177 -3.574022 -1.076102 -22.726111 4.614121 -1.341802 16.968496 1.988199 -0.341643 9.119447 0.000000 0.000000 0.000000 7.953321 -26.667249 -52.002728 52.452718 -53.937651 28.145216 12.382038 1.126641 -15.630784 0.000000 0.000000 0.000000 -7.125000 0.000000 0.000000 -14.256216 45.468526 0.168330 0.000000 0.000000 0.000000 -9.214980 29.726866 1.227149 -13.386664 -21.849770 -2.596318 -4.057327 8.989193 12.009205 0.000000 0.000000 0.000000 7.125000 0.000000 0.000000 20.382887 41.111090 2.051701
28.352797 17.374211 5.824613 40.102169 -83.871553 -38.964574 0.000000 0.000000 0.000000 -28.438186 -5.063321 9.970285 0.736206 5.481452 15.287006 1.071795 -8.384191 -18.554412 0.000147 0.046120 0.126628 0.000000 0.000000 0.000000 1.581634 13.089743 -74.270789 -14.155354 -19.159788 72.677718 -0.752799 -23.036974 21.212106 -1.402771 -7.491343 21.179627 -6.375190 -5.466930 4.642190 2.311919 -7.627486 -1.831337 6.459898 -3.634013 -3.355316 -3.601633 -1.088703 -22.538517 4.599482 -1.352303 16.945394 1.985049 -0.352514 9.079420 0.000000 0.000000 0.000000 7.605682 -25.937873 -52.142142 52.122127 -53.816027 27.878125 12.438558 1.198911 -15.639926 0.000000 0.000000 0.000000 -7.125000 0.000000 0.000000 -14.207974 45.484339 0.173395 0.000000 0.000000 0.000000 -9.053020 29.588749 2.313924 -13.791997 -22.435654 -2.748828 -4.339491 8.058140 12.148557 0.000000 0.000000 0.000000 7.125000 0.000000 0.000000 20.188930 41.267984 1.948052
28.262430 17.359495 5.817686 39.410719 -83.801278 -38.073588 0.000000 0.000000 0.000000 -28.318049 -4.942040 10.070399 0.732788 5.469087 15.251444 1.076408 -8.515472 -18.604193 0.000330 -0.072662 -0.199723 0.000000 0.000000 0.000000 1.915942 12.858805 -73.015988 -13.851982 -19.066698 71.750358 -0.764138 -23.173623 21.353874 -1.517965 -7.775096 22.035619 -6.329692 -5.466317 4.394892 2.315509 -7.608933 -1.836163 6.408938 -3.631765 -3.229365 -3.642426 -1.151725 -22.567813 4.629426 -1.430549 16.933639 1.991032 -0.388008 9.084636 0.000000 0.000000 0.000000 7.325223 -25.386501 -52.297939 51.581189 -53.611827 27.442492 12.365893 1.160359 -15.652269 0.000000 0.000000 0.000000 -7.125000 0.000000 0.000000 -14.277428 45.487723 0.175494 0.000000 0.000000 0.000000 -8.777083 29.102958 3.191388 -14.180098 -22.989855 -2.899171 -4.527780 7.205613 12.089332 0.000000 0.000000 0.000000 7.125000 0.000000 0.000000 20.011216 41.229645 1.948540
28.170958 17.344812 5.810600 38.653124 -83.733114 -37.127240 0.000000 0.000000 0.000000 -28.191475 -4.822678 10.176565 0.731560 5.464627 15.238646 1.081021 -8.636009 -18.653467 0.000930 -0.192954 -0.530199 0.000000 0.000000 0.000000 2.270197 12.617406 -71.709507 -13.538381 -18.967467 70.789185 -0.774290 -23.300467 21.482614 -1.645661 -8.084384 22.971323 -6.269720 -5.464684 4.105592 2.310073 -7.584916 -1.805670 6.332804 -3.630721 -3.046674 -3.686642 -1.226438 -22.647281 4.670230 -1.524495 16.924299 1.999370 -0.429176 9.100262 0.000000 0.000000 0.000000 7.062013 -24.874900 -52.454761 50.981796 -53.383416 26.960352 12.263092 1.097461 -15.662594 0.000000 0.000000 0.000000 -7.125000 0.000000 0.000000 -14.373488 45.485477 0.175898 0.000000 0.000000 0.000000 -8.475808 28.532810 4.012560 -14.568494 -23.540814 -3.051945 -4.691323 6.377609 11.979244 0.000000 0.000000 0.000000 7.125000 0.000000 0.000000 19.838251 41.141202 1.975800
28.079910 17.330234 5.803620 37.994968 -83.671777 -36.273028 0.000000 0.000000 0.000000 -28.047490 -4.671034 10.266378 0.727792 5.450852 15.199175 1.082565 -8.791050 -18.680460 0.002536 -0.313405 -0.861099 0.000000 0.000000 0.000000 2.617836 12.387067 -70.440389 -13.231077 -18.862521 69.840342 -0.793068 -23.417521 21.657236 -1.754993 -8.333501 23.733128 -6.223084 -5.461781 3.899590 2.323848 -7.566880 -1.841064 6.299325 -3.625286 -2.974589 -3.726731 -1.276965 -22.622017 4.692775 -1.585894 16.908239 2.004744 -0.458332 9.093715 0.000000 0.000000 0.000000 6.776576 -24.268940 -52.587134 50.425376 -53.164319 26.514623 12.221151 1.095793 -15.654873 0.000000 0.000000 0.000000 -7.125000 0.000000 0.000000 -14.409005 45.472753 0.171698 0.000000 0.000000 0.000000 -8.235709 28.107032 4.887712 -14.990813 -24.131517 -3.223293 -4.882067 5.549711 11.935573 0.000000 0.000000 0.000000 7.125000 0.000000 0.000000 19.663381 41.117483 1.968820
27.987598 17.315721 5.796478 37.320555 -83.616982 -35.410946 0.000000 0.000000 0.000000 -27.894307 -4.512912 10.357454 0.725611 5.442843 15.176157 1.082814 -8.943922 -18.697672 0.004725 -0.434471 -1.193813 0.000000 0.000000 0.000000 2.985394 12.153327 -69.123790 -12.913571 -18.748894 68.855095 -0.817546 -23.497490 21.845688 -1.860957 -8.568238 24.455032 -6.171071 -5.454506 3.698770 2.339760 -7.543240 -1.878563 6.265878 -3.616806 -2.908787 -3.769248 -1.329307 -22.595361 4.713216 -1.648880 16.898722 2.009632 -0.488653 9.089337 0.000000 0.000000 0.000000 6.487964 -23.643062 -52.717984 49.814739 -52.918503 26.026854 12.170788 1.085154 -15.628756 0.000000 0.000000 0.000000 -7.125000 0.000000 0.000000 -14.446304 45.440984 0.160567 0.000000 0.000000 0.000000 -7.998493 27.668008 5.753665 -15.429779 -24.739223 -3.405104 -5.086318 4.724145 11.915448 0.000000 0.000000 0.000000 7.125000 0.000000 0.000000 19.484269 41.117179 1.949533
27.894141 17.301267 5.789189 36.631391 -83.568122 -34.541724 0.000000 0.000000 0.000000 -27.732780 -4.348913 10.449676 0.724870 5.440063 15.168065 1.081888 -9.094825 -18.706011 0.007443 -0.556095 -1.528171 0.000000 0.000000 0.000000 3.371022 11.916502 -67.764118 -12.586810 -18.627393 67.836823 -0.847195 -23.543818 22.046687 -1.963865 -8.789929 25.140736 -6.114181 -5.443263 3.502652 2.357611 -7.514517 -1.917972 6.232461 -3.605563 -2.848685 -3.813970 -1.383293 -22.567441 4.731747 -1.713306 16.895139 2.014079 -0.520032 9.086928 0.000000 0.000000 0.000000 6.196473 -22.999114 -52.847453 49.154916 -52.648446 25.500948 12.112787 1.066376 -15.585949 0.000000 0.000000 0.000000 -7.125000 0.000000 0.000000 -14.485219 45.391939 0.143148 0.000000 0.000000 0.000000 -7.763892 27.216966 6.611275 -15.883848 -25.362355 -3.596404 -5.302820 3.900694 11.916683 0.000000 0.000000 0.000000 7.125000 0.000000 0.000000 19.301307 41.138119 1.919081
27.798055 17.286925 5.781509 35.909566 -83.536655 -33.656115 0.000000 0.000000 0.000000 -27.551454 -4.176750 10.545030 0.727317 5.449140 15.194201 1.078948 -9.244498 -18.698243 0.011279 -0.678223 -1.863817 0.000000 0.000000 0.000000 3.799937 11.677105 -66.319660 -12.241089 -18.488276 66.748531 -0.892113 -23.502396 22.290916 -2.050667 -8.969452 25.700774 -6.047225 -5.425478 3.300325 2.379713 -7.476510 -1.952068 6.196919 -3.590295 -2.781481 -3.862773 -1.438398 -22.532866 4.748656 -1.777787 16.890438 2.018639 -0.551970 9.083009 0.000000 0.000000 0.000000 5.906660 -22.332180 -52.965681 48.403429 -52.327832 24.905525 12.069773 1.050842 -15.508748 0.000000 0.000000 0.000000 -7.125000 0.000000 0.000000 -14.499862 45.310904 0.113649 0.000000 0.000000 0.000000 -7.534268 26.732257 7.449701 -16.370465 -26.017477 -3.808677 -5.511493 3.075621 11.922616 0.000000 0.000000 0.000000 7.125000 0.000000 0.000000 19.126175 41.162918 1.888013
